<svg width="495" height="800" viewBox="0 0 495 800" fill="none" xmlns="http://www.w3.org/2000/svg">
<g opacity="0.3">
<path opacity="0.3" d="M406.546 472.737H324.987L287.527 389.985H369.086L406.546 472.737Z" fill="white"/>
<path opacity="0.3" d="M275.092 389.985L312.552 472.737H230.994L193.533 389.985H275.092Z" fill="white"/>
<path opacity="0.3" d="M447.762 563.779H366.203L328.74 481.029H410.299L447.762 563.779Z" fill="white"/>
<path opacity="0.3" d="M353.766 563.779H272.207L234.747 481.029H316.305L353.766 563.779Z" fill="white"/>
</g>
<path d="M8.80893 365.011H421.79C426.302 365.011 429.962 361.351 429.962 356.84V106.17C429.962 101.659 426.302 97.9989 421.79 97.9989H4.90021C2.54407 97.9989 0.637329 99.9089 0.637329 102.261V356.84C0.637329 361.351 4.29413 365.011 8.80893 365.011Z" fill="#5E5DBA"/>
<path d="M10.0516 354.75H420.766C421.685 354.75 422.43 354.004 422.43 353.085V109.929C422.43 109.009 421.685 108.264 420.766 108.264H10.0516C9.13226 108.264 8.38663 109.009 8.38663 109.929V353.081C8.38321 354.004 9.12888 354.75 10.0516 354.75Z" fill="white"/>
<path opacity="0.5" d="M8.38312 137.608V111.11C8.38312 109.537 9.44543 108.26 10.7529 108.26H420.061C421.368 108.26 422.43 109.537 422.43 111.11V277.775L8.38312 137.608Z" fill="#F2F2F2"/>
<path d="M374.746 247.631L374.68 253.085L374.059 266.643L400.748 263.13L403.657 259.177L403.894 248.873L404.768 239.224H387.024L374.746 247.631Z" fill="#FFC0BB"/>
<path d="M350.141 578.254C350.141 578.254 348.81 584.258 350.141 591.928C351.477 599.598 386.09 782.025 386.09 782.025L367.818 784.692C367.818 784.692 308.204 615.273 304.877 603.93C301.55 592.593 297.888 576.583 309.204 564.245C320.52 551.907 350.141 578.254 350.141 578.254Z" fill="#FFC0BB"/>
<path d="M340.524 787.298L362.38 760.923L384.237 770.006L378.76 777.572L354.952 789.546C354.952 789.546 344.774 791.592 344.246 791.443C343.729 791.295 340.524 787.298 340.524 787.298Z" fill="#FFC0BB"/>
<path d="M340.524 787.298L335.784 793.241C333.579 795.957 336.279 799.883 339.6 798.778L385.468 783.532C387.085 782.993 387.965 781.244 387.426 779.622L384.242 770.006C356.92 789.898 345.39 790.443 340.524 787.298Z" fill="#CB5F5A"/>
<path d="M416.122 174.418C416.122 174.418 427.537 166.93 440.525 174.418C453.512 181.901 453.512 207.148 448.398 213.191C443.279 219.233 448.662 227.409 438.43 235.299C428.197 243.188 411.899 246.08 402.596 236.865C393.293 227.651 400.116 207.093 400.116 207.093L416.122 174.418Z" fill="#23120B"/>
<path d="M371.37 788.546L396.482 772.86L418.294 785.923L410.723 791.377L384.363 795.231C384.363 795.231 374.059 793.961 373.608 793.654C373.157 793.351 371.37 788.546 371.37 788.546Z" fill="#FFC0BB"/>
<path d="M431.952 560.957C431.952 560.957 428.356 647.888 428.027 662.897C427.697 677.907 420.037 789.293 416.711 798.97L398.071 797.634C398.071 797.634 385.358 581.971 389.35 560.957C393.348 539.943 431.952 560.957 431.952 560.957Z" fill="#FFC0BB"/>
<path d="M471.899 489.949C478.321 488.624 479.921 492.775 486.415 491.417L484.892 501.451C485.766 503.403 487.713 508.615 487.713 508.615C494.943 529.612 494.547 527.353 493.827 527.743C493.107 528.133 487.674 520.365 487.058 521.09C486.442 521.811 490.17 534.308 489.06 533.978C487.949 533.648 483.11 522.531 482.483 522.949C481.857 523.366 485.629 535.369 483.996 535.792C482.363 536.21 478.673 522.921 477.513 523.784C476.353 524.648 480.477 538.167 478.926 538.31C477.623 538.431 472.641 523.421 471.085 518.638C470.887 518.022 470.079 517.879 469.672 518.385C463.437 526.187 462.502 526.423 461.804 525.544C461.309 524.917 464.514 516.428 467.066 508.313L470.453 498.422L471.899 489.949Z" fill="#FFC0BB"/>
<path d="M371.37 788.546L365.008 792.691C362.061 794.572 363.392 799.152 366.889 799.152H415.215C416.919 799.152 418.3 797.766 418.3 796.062V785.929C386.117 796.188 374.999 793.065 371.37 788.546Z" fill="#CB5F5A"/>
<path d="M216.654 258.369C216.527 258.973 215.785 259.204 215.351 258.77C211.963 255.394 201.247 244.838 200.197 245.503C198.943 246.295 208.29 255.966 207.68 257.198C207.07 258.435 198.19 248.775 196.986 249.836C195.781 250.902 204.172 259.435 203.826 260.062C203.474 260.689 194.561 253.371 193.483 253.574C192.4 253.778 200.966 262.745 200.758 263.625C200.549 264.505 192.581 260.282 192.141 260.925C191.702 261.569 191.3 261.92 206.514 276.578L212.75 282.093L220.266 283.841L225.572 276.216C225.572 276.216 221.25 249.346 220.233 248.884C219.254 248.439 218.562 249.049 216.654 258.369Z" fill="#FFC0BB"/>
<path d="M419.625 560.957L404.163 618.297C368.451 618.258 315.176 614.943 288.711 597.267C288.711 597.267 323.308 436.156 346.275 395.799L425.156 391.461C425.156 391.461 479.855 467.814 439.92 617.225C439.92 617.225 433.091 617.731 422.193 618.044L419.625 560.957Z" fill="#23120B"/>
<path d="M352.268 204.729C353.901 209.172 352.345 213.834 348.799 215.143C345.252 216.451 341.052 213.911 339.424 209.469C337.791 205.026 339.347 200.364 342.894 199.055C346.44 197.747 350.641 200.287 352.268 204.729Z" fill="#F99893"/>
<path d="M405.059 236.783C405.059 236.783 404.356 242.254 403.894 248.873C397.928 253.706 390.219 256.18 382.18 255.141C379.535 254.8 377.028 254.091 374.68 253.085C374.867 248.769 374.801 244.766 374.136 242.847C372.299 237.58 405.059 236.783 405.059 236.783Z" fill="#F99893"/>
<path d="M348.309 264.659L273.58 321.371L225.732 272.197C225.732 272.197 211.419 283.259 211.419 283.055C211.419 282.852 256.402 353.332 267.443 357.021C278.484 360.71 349.734 310.958 349.734 310.958L348.309 264.659Z" fill="#DCAF0C"/>
<path d="M352.642 230.405C351.62 228.475 350.767 226.441 350.102 224.319C348.2 218.612 347.353 212.591 347.023 207.352C346.951 206.23 346.819 205.108 346.66 203.998C346.033 199.495 346.209 194.75 347.43 189.906C351.345 174.319 365.278 162.96 381.3 162.322C402.887 161.464 420.109 179.108 419.383 200.171C421.714 198.978 424.288 198.775 426.514 199.863C430.781 201.952 432.128 207.978 429.522 213.328C426.916 218.672 421.34 221.311 417.074 219.222C416.48 218.931 415.952 218.557 415.473 218.128C413.038 235.986 397.906 249.313 380.344 248.417C371.755 247.977 364.09 244.211 358.427 238.372C358.047 238.031 357.646 237.63 357.234 237.168C355.408 235.134 353.901 232.841 352.642 230.405Z" fill="#FFC0BB"/>
<path d="M385.512 205.196C385.413 207.093 386.87 208.71 388.767 208.809C390.659 208.908 392.275 207.445 392.369 205.548C392.468 203.652 391.011 202.035 389.114 201.936C387.222 201.837 385.611 203.3 385.512 205.196Z" fill="#333333"/>
<path d="M357.327 205.196C357.228 207.093 358.685 208.71 360.582 208.809C362.474 208.908 364.09 207.445 364.189 205.548C364.288 203.652 362.825 202.035 360.934 201.936C359.037 201.837 357.426 203.3 357.327 205.196Z" fill="#333333"/>
<path d="M375.027 198.637C375.049 199.748 375.06 200.853 375.016 201.958C374.988 203.063 374.922 204.163 374.812 205.262C374.697 206.356 374.548 207.445 374.284 208.501C374.026 209.551 373.668 210.596 373.053 211.426C372.97 211.525 372.899 211.635 372.805 211.717C372.717 211.811 372.64 211.893 372.525 212.003C372.42 212.108 372.316 212.206 372.222 212.322C372.123 212.432 372.03 212.547 371.948 212.668C371.601 213.152 371.348 213.718 371.266 214.318C371.084 215.527 371.574 216.737 372.343 217.589C373.108 218.463 374.119 219.063 375.175 219.442C376.242 219.816 377.358 219.986 378.463 219.975C377.913 219.909 377.369 219.816 376.836 219.689C376.302 219.557 375.785 219.381 375.285 219.162C374.29 218.727 373.377 218.106 372.706 217.281C372.046 216.468 371.651 215.417 371.838 214.411C371.915 213.911 372.123 213.438 372.431 213.026C372.503 212.921 372.585 212.822 372.673 212.723C372.756 212.624 372.849 212.536 372.943 212.443L373.251 212.135C373.361 212.031 373.443 211.91 373.537 211.794C373.894 211.316 374.147 210.793 374.356 210.26C374.565 209.727 374.724 209.177 374.845 208.627C375.087 207.522 375.225 206.406 375.285 205.295C375.423 203.074 375.318 200.842 375.027 198.637Z" fill="#F99893"/>
<path d="M338.385 338.762C338.121 338.482 326.656 326.232 328.883 303.255C330.093 290.785 336.515 279.399 342.212 271.52C347.248 264.549 355.26 260.364 363.848 260.205C379.53 259.914 404.559 259.573 404.559 259.573C404.559 259.573 436.852 256.021 447.09 268.65C457.328 281.274 491.979 368.875 493.948 410.699C495.916 452.523 485.678 501.847 485.678 501.847C485.678 501.847 474.258 502.633 469.139 501.847C464.02 501.055 470.321 420.959 464.806 407.939C459.291 394.92 434.487 332.577 432.909 326.655L426.762 359.297C425.629 365.318 426.152 371.525 428.279 377.265C433.492 391.34 443.56 418.391 447.618 428.42C447.618 428.42 370.094 440.917 331.896 421.976L332.243 420.508C338.594 393.721 340.623 366.143 338.385 338.762Z" fill="#FDB827"/>
<path d="M382.625 199.462C384.187 198.632 385.809 198.016 387.459 197.604C389.114 197.208 390.802 197.059 392.462 197.219C393.293 197.29 394.117 197.455 394.92 197.686C395.327 197.791 395.717 197.939 396.119 198.076C396.317 198.148 396.509 198.241 396.702 198.318C396.9 198.395 397.097 198.472 397.284 198.571C398.819 199.302 400.265 200.265 401.678 201.337C400.628 199.907 399.286 198.67 397.741 197.725C396.966 197.252 396.141 196.85 395.267 196.57C394.398 196.279 393.496 196.075 392.578 195.993C390.747 195.822 388.888 196.07 387.184 196.685C386.326 196.982 385.512 197.378 384.742 197.834C383.984 198.302 383.252 198.824 382.625 199.462Z" fill="#07085B"/>
<path d="M368.791 199.462C368.17 198.824 367.433 198.302 366.669 197.84C365.899 197.384 365.085 196.988 364.228 196.691C362.523 196.075 360.665 195.828 358.834 195.998C357.915 196.075 357.014 196.279 356.145 196.575C355.276 196.861 354.446 197.257 353.67 197.73C352.12 198.676 350.784 199.907 349.734 201.342C351.147 200.27 352.593 199.314 354.127 198.577C354.314 198.478 354.512 198.401 354.71 198.324C354.908 198.247 355.095 198.153 355.293 198.082C355.694 197.944 356.084 197.791 356.491 197.692C357.294 197.466 358.119 197.296 358.949 197.224C360.61 197.065 362.298 197.213 363.953 197.609C365.608 198.016 367.23 198.632 368.791 199.462Z" fill="#07085B"/>
<path d="M410.613 259.177C410.613 259.177 385.947 290.494 380.701 301.804C380.701 301.804 366.224 282.764 365.591 260.073L410.613 259.177Z" fill="#FFC0BB"/>
<path d="M380.701 301.804C380.036 312.668 379.618 323.549 379.376 334.43C379.227 339.867 379.189 345.31 379.117 350.754C379.095 356.197 379.09 361.64 379.134 367.083C379.156 369.804 379.189 372.526 379.249 375.248C379.31 377.969 379.337 380.691 379.42 383.412C379.612 388.855 379.755 394.293 380.08 399.731C380.657 410.6 381.482 421.476 383.054 432.252L382.779 428.178L382.471 424.109C382.307 421.393 382.197 418.677 382.054 415.967L381.944 413.932L381.867 411.892L381.718 407.818L381.559 403.744L381.454 399.67C381.141 388.806 380.981 377.936 380.899 367.061C380.778 356.191 380.767 345.316 380.75 334.441L380.701 301.804Z" fill="#E3F6FF"/>
<path d="M430.226 316.33C430.385 317.204 430.512 318.089 430.693 318.958C430.886 319.826 431.051 320.701 431.276 321.564C431.721 323.285 432.2 325.006 432.904 326.639C432.387 324.94 431.996 323.213 431.699 321.47C431.37 319.733 431.133 317.979 430.908 316.231C430.495 312.723 430.27 309.193 430.171 305.663L430.105 303.013L430.121 300.363C430.088 298.593 430.209 296.828 430.237 295.058C430.242 294.172 430.33 293.293 430.363 292.407L430.495 289.752C430.605 287.982 430.765 286.217 430.858 284.441C430.567 286.189 430.319 287.948 430.061 289.708C429.879 291.473 429.665 293.243 429.544 295.014L429.385 297.675C429.324 298.56 429.302 299.451 429.286 300.341L429.242 303.008L430.226 316.33Z" fill="#E3F6FF"/>
<path d="M348.744 171.092C355.501 147.824 386.353 146.999 386.353 146.999C434.069 150.314 426.553 192.254 424.98 199.192C423.6 198.874 421.698 198.912 419.388 200.166C418.415 200.693 417.629 201.249 416.991 201.81C411.372 200.094 409.667 190.742 406.758 186.239C402.81 180.125 385.413 183.281 378.815 178.943C372.211 174.605 371.541 167.897 371.541 167.897C346.088 171.938 346.484 198.89 346.484 198.89C345.384 198.643 344.026 198.764 344.026 198.764C344.026 198.764 342.707 191.88 348.744 171.092Z" fill="#23120B"/>
<path d="M365.668 224.038C366.537 227.612 370.694 230.356 375.725 230.411C380.756 230.466 384.973 227.816 385.925 224.258L365.668 224.038Z" fill="white"/>
<path d="M129.186 19.8793H117.012V69.2277H129.186V19.8793Z" fill="#142666"/>
<path d="M236.061 68.6465V58.9528L186.81 58.9528V68.6465L236.061 68.6465Z" fill="#FFC907"/>
<path d="M242.614 58.9207V49.2271L193.363 49.2271V58.9207L242.614 58.9207Z" fill="#142666"/>
<path d="M143.264 0H130.815V68.4975H143.264V0Z" fill="white"/>
<path d="M115.567 7.54987H104.101V68.4975H115.567V7.54987Z" fill="#5E5DBA"/>
<path d="M180.26 62.8895L169.957 67.9305L143.272 13.1605L153.577 8.11951L180.26 62.8895Z" fill="#5E5DBA"/>
<path d="M291.928 68.1531H95V73.7275H291.928V68.1531Z" fill="#4188E4"/>
<path d="M262.472 58.5676C262.289 56.9572 262.074 55.3079 261.325 53.8684C260.417 52.1207 258.819 50.8572 257.421 49.4669C254.811 46.87 252.804 43.6699 251.6 40.1901C250.668 37.4974 250.204 34.6313 248.92 32.0888C248.136 30.5379 247.066 29.1501 246.176 27.6562C244.07 24.1273 242.926 19.9536 240.07 16.9994C239.521 20.5827 240.606 24.3836 242.962 27.1306C243.664 27.9514 244.48 28.6893 245.016 29.6265C245.986 31.3302 245.898 33.4066 246.012 35.3666C246.227 39.0483 247.263 42.6782 249.026 45.9146C250.898 49.353 253.602 52.4159 254.604 56.2012C255.355 59.0388 255.132 62.2208 256.729 64.6805C256.903 64.9472 257.102 65.2138 257.144 65.5297C257.167 65.7058 257.141 65.887 257.113 66.0631C257.076 66.2909 257.04 66.5188 257.004 66.7492C256.639 69.0716 256.263 72.0258 258.26 73.7631C259.642 74.967 261.424 74.9955 262.415 73.3954C263.415 71.785 263.327 69.4263 263.252 67.614C263.135 64.5976 262.812 61.571 262.472 58.5676Z" fill="#0D6405"/>
<path d="M266.066 56.7008C265.29 54.0133 264.086 51.4527 263.482 48.7212C262.897 46.07 262.892 43.3307 262.889 40.6173C262.887 37.6424 262.884 34.6675 262.884 31.6952C262.884 29.844 262.882 27.9825 262.573 26.1545C261.916 22.2243 259.873 18.5917 259.526 14.6226C259.376 12.9061 259.549 11.1714 259.36 9.45996C259.251 8.48127 259 7.48188 258.55 6.61453C258.063 5.68245 256.716 5.72129 256.276 6.67926C255.285 8.82822 254.655 11.1507 255.057 13.455C255.297 14.835 255.896 16.1243 256.341 17.4525C258.33 23.3686 257.273 29.9191 258.814 35.9698C259.277 37.7952 259.982 39.5868 260.062 41.4691C260.259 45.9767 256.892 50.0934 257.201 54.5933C257.454 58.2828 260.106 61.3354 261.219 64.8617C261.843 66.8346 261.975 68.9421 262.643 70.9021C263.161 72.4245 264.368 74.2731 266.242 73.8097C268.021 73.3721 267.483 71.9196 267.405 70.5319C267.138 65.8378 267.389 61.2862 266.066 56.7008Z" fill="#149309"/>
<path d="M270.139 59.1631C270.062 57.765 269.826 56.3617 270.02 54.9765C270.186 53.8063 270.652 52.7033 270.983 51.5693C271.608 49.4462 271.76 47.2144 271.913 45.0059C272.188 40.9902 272.462 36.9744 272.736 32.9613C273.164 26.719 273.591 20.4611 274.759 14.3145C275.082 12.6083 275.447 10.7597 274.678 9.20105C274.518 8.87223 274.199 8.52529 273.85 8.63403C273.601 8.7117 273.48 8.98616 273.389 9.22954C270.838 16.1632 269.873 23.625 267.027 30.4421C266.346 32.0758 265.551 33.6811 265.199 35.4158C264.774 37.4974 265.007 39.649 265.062 41.7746C265.139 44.822 264.844 47.8927 264.003 50.821C263.562 52.3538 262.972 53.8529 262.731 55.427C262.431 57.3922 262.682 59.3961 262.871 61.3742C263.234 65.1802 263.355 69.0095 263.239 72.831C263.169 75.0784 265.067 75.0188 266.323 73.6388C267.2 72.6731 267.193 71.6142 267.493 70.4128C268.482 66.4696 270.38 63.4403 270.139 59.1631Z" fill="#0D6405"/>
<path d="M258.291 65.2553C256.613 62.56 253.273 61.0298 252.201 58.0394C251.929 57.2782 251.823 56.4601 251.489 55.7248C250.748 54.091 249.065 53.1667 247.411 52.4159C247.18 52.3123 246.919 52.478 246.916 52.7318C246.911 53.1331 247.1 53.5163 247.434 53.7415C248.708 54.5985 249.676 55.9112 250.109 57.3896C250.619 59.1398 250.399 61.0609 251.033 62.7697C251.566 64.2067 252.664 65.3796 253.179 66.8217C253.651 68.1395 253.602 69.5791 253.822 70.9617C254.044 72.3443 254.658 73.8123 255.927 74.3974C260.523 76.5127 259.373 66.9977 258.291 65.2553Z" fill="#149309"/>
<path d="M277.397 64.3672C277.325 65.6695 277.524 67.0366 277.014 68.2353C276.688 69.0043 276.1 69.6231 275.621 70.3066C273.93 72.6989 273.316 76.0881 270.719 77.4344C270.548 77.5225 270.357 77.6027 270.168 77.5665C269.901 77.5173 269.728 77.261 269.619 77.0098C268.982 75.5263 269.697 73.8537 270.121 72.295C270.196 72.0232 270.258 71.7177 270.126 71.4665C269.984 71.1895 269.658 71.0704 269.435 70.8555C268.992 70.4231 269.034 69.7085 269.122 69.0949C269.342 67.5622 269.653 66.0423 270.049 64.5458C270.274 63.6966 270.533 62.8396 271.022 62.1121C271.561 61.3095 272.343 60.7114 273.076 60.0822C276.312 57.2989 278.79 53.6405 280.175 49.6015C280.476 48.7264 280.742 47.8047 281.364 47.1186C281.985 46.4324 283.091 46.0803 283.844 46.6137C284.383 46.9917 282.18 50.5336 281.923 50.9582C281.19 52.1725 281.18 53.2289 280.766 54.5752C279.748 57.8737 277.591 60.8279 277.397 64.3672Z" fill="#0D6405"/>
<path d="M274.836 65.8741C275.318 64.6313 275.802 63.373 275.96 62.05C276.136 60.5794 275.903 59.0751 276.154 57.6148C276.478 55.7377 277.571 54.0859 278.114 52.2606C278.505 50.9427 278.601 49.5575 278.837 48.2008C279.51 44.3249 281.33 40.5397 280.807 36.6405C280.693 35.7938 280.31 34.8048 279.469 34.6598C278.707 34.5278 278.014 35.2242 277.814 35.9751C277.615 36.7233 277.762 37.513 277.819 38.2872C277.972 40.4413 277.356 42.642 276.11 44.4052C274.914 46.0985 273.177 47.3749 272.1 49.1459C270.779 51.3207 270.598 53.9746 269.924 56.429C268.583 61.3095 265.222 65.566 264.609 70.5914C264.365 72.5902 264.834 75.0214 266.68 75.8188C272.017 78.1257 273.627 68.9991 274.836 65.8741Z" fill="#149309"/>
<path d="M265.507 69.5454H264.653H253.257C252.421 69.5454 251.802 70.3299 251.996 71.1455L256.46 89.9709C256.6 90.556 257.12 90.9703 257.721 90.9703H264.65H265.504H272.433C273.034 90.9703 273.557 90.556 273.694 89.9709L278.158 71.1455C278.352 70.3299 277.734 69.5454 276.897 69.5454H265.507Z" fill="white"/>
</svg>
