<svg width="76" height="63" viewBox="0 0 76 63" fill="none" xmlns="http://www.w3.org/2000/svg">
<path d="M76 6.42857C76 2.87817 73.1406 0 69.6134 0H6.38655C2.85936 0 0 2.87817 0 6.42857V56.5714C0 60.1218 2.85936 63 6.38655 63H25.6466C29.1738 63 32.0332 60.1218 32.0332 56.5714V35.5078C32.0332 31.9574 29.1738 29.0792 25.6466 29.0792H23.4263C21.0537 29.0792 19.1304 27.1432 19.1304 24.755C19.1304 22.3668 21.0537 20.4308 23.4263 20.4308H49.1721C51.5447 20.4308 53.4681 22.3668 53.4681 24.755C53.4681 27.1432 51.5447 29.0792 49.1721 29.0792H46.9817C43.4545 29.0792 40.5952 31.9574 40.5952 35.5078V56.5714C40.5952 60.1218 43.4545 63 46.9817 63H69.6134C73.1406 63 76 60.1218 76 56.5714V6.42857Z" fill="#5E5DBA"/>
</svg>
