<svg xmlns="http://www.w3.org/2000/svg" xmlns:xlink="http://www.w3.org/1999/xlink" viewBox="0 0 54 66" fill="#fff" fill-rule="evenodd" stroke="#000" stroke-linecap="round" stroke-linejoin="round"><use xlink:href="#A" x=".5" y=".5"/><symbol id="A" overflow="visible"><path d="M43.522 34.006c-.074-8.097 6.62-11.987 6.92-12.18-3.765-5.508-9.62-6.258-11.708-6.347-4.98-.507-9.722 2.934-12.252 2.934s-6.428-2.86-10.56-2.78c-5.435.08-10.443 3.155-13.245 8.023-5.64 9.78-1.44 24.3 4.06 32.24 2.692 3.883 5.9 8.26 10.105 8.097 4.06-.162 5.6-2.625 10.487-2.625s6.28 2.625 10.56 2.545c4.36-.088 7.126-3.97 9.796-7.87 3.08-4.508 4.354-8.876 4.427-9.104-.096-.037-8.5-3.258-8.6-12.936m-8.042-23.78C37.705 7.516 39.213 3.75 38.8 0c-3.22.132-7.12 2.147-9.428 4.854-2.067 2.4-3.883 6.222-3.4 9.9 3.58.28 7.25-1.83 9.487-4.53" stroke="none" fill="#000" fill-rule="nonzero"/></symbol></svg>