<svg xmlns="http://www.w3.org/2000/svg" xmlns:xlink="http://www.w3.org/1999/xlink" viewBox="0 0 80.394 57.394" fill="#fff" fill-rule="evenodd" stroke="#000" stroke-linecap="round" stroke-linejoin="round"><use xlink:href="#A" x="8.197" y="8.197"/><symbol id="A" overflow="visible"><path d="M18.574.004a19.51 19.51 0 0 1 5.115.574c1.557.28 2.836.852 3.984 1.557 1.137.7 2.03 1.75 2.557 2.984.594 1.44.884 2.985.852 4.54 0 1.967-.426 3.688-1.426 4.967-.852 1.28-2.295 2.4-3.984 3.28a9.51 9.51 0 0 1 5.393 3.689c1.147 1.705 1.852 3.836 1.852 6.23a11.31 11.31 0 0 1-1.131 5.115 9.51 9.51 0 0 1-3.115 3.557 14.1 14.1 0 0 1-4.541 1.967c-1.67.435-3.388.672-5.115.705H0V.004zm-1.148 15.902c1.557 0 2.836-.426 3.836-1.148S22.69 12.79 22.69 11.2a5.41 5.41 0 0 0-.426-2.279c-.28-.574-.705-.984-1.28-1.426-.574-.28-1.148-.574-1.852-.705s-1.426-.164-2.295-.164H8.64v9.23zm.4 16.803c.8-.015 1.617-.11 2.4-.28a5.08 5.08 0 0 0 3.393-2.41c.28-.705.574-1.557.574-2.557 0-1.967-.574-3.4-1.705-4.426-1.148-.852-2.705-1.28-4.54-1.28H8.623v10.935zm27.426-.164c1.147 1.148 2.836 1.705 5.115 1.705a7.54 7.54 0 0 0 4.098-1.148c.954-.615 1.698-1.508 2.13-2.557h6.967c-1.148 3.4-2.836 5.82-5.115 7.377-2.295 1.426-4.967 2.295-8.246 2.295a16.72 16.72 0 0 1-6.115-1.131c-1.75-.653-3.31-1.73-4.54-3.13-1.326-1.298-2.302-2.91-2.836-4.69a16.72 16.72 0 0 1-1-6.115c0-2.13.28-4.098.984-5.967a15.08 15.08 0 0 1 2.984-4.836c1.298-1.326 2.84-2.39 4.54-3.13 1.898-.76 3.923-1.148 5.967-1.148 2.4 0 4.54.426 6.394 1.426s3.28 2.13 4.426 3.836c1.16 1.635 2.026 3.46 2.557 5.393.28 1.967.426 3.984.28 6.23H43.295c-.052 2.027.65 4 1.967 5.54zm8.95-14.918c-.984-.984-2.557-1.557-4.426-1.557-1.28 0-2.295.28-3.115.705s-1.426.984-1.967 1.557c-.508.55-.85 1.23-.984 1.967-.13.69-.28 1.28-.28 1.853H56.23a7.54 7.54 0 0 0-2-4.525zM41.77 2.71h15.902v3.836H41.77z" stroke="none" fill="#000" fill-rule="nonzero"/></symbol></svg>