<svg xmlns="http://www.w3.org/2000/svg" xmlns:xlink="http://www.w3.org/1999/xlink" viewBox="0 0 65 65" fill="#fff" fill-rule="evenodd" stroke="#000" stroke-linecap="round" stroke-linejoin="round"><use xlink:href="#D" x=".5" y=".5"/><defs><radialGradient id="A" cx="-17%" cy="162%" fx="-17%" fy="162%" r="377%"><stop offset="0%" stop-color="#fed576"/><stop offset="26.3%" stop-color="#f47133"/><stop offset="60.9%" stop-color="#bc3081"/><stop offset="100%" stop-color="#4c63d2"/></radialGradient><radialGradient id="B" cx="-449%" cy="733%" fx="-449%" fy="733%" r="1576%"><stop offset="0%" stop-color="#fed576"/><stop offset="26.3%" stop-color="#f47133"/><stop offset="60.9%" stop-color="#bc3081"/><stop offset="100%" stop-color="#4c63d2"/></radialGradient><radialGradient id="C" cx="16%" cy="107%" fx="16%" fy="107%" r="193%"><stop offset="0%" stop-color="#fed576"/><stop offset="26.3%" stop-color="#f47133"/><stop offset="60.9%" stop-color="#bc3081"/><stop offset="100%" stop-color="#4c63d2"/></radialGradient></defs><symbol id="D" overflow="visible"><g stroke="none" fill-rule="nonzero"><path d="M32.028 15.637c-.563 0-1.12.03-1.668.085s-1.085.14-1.62.25-1.054.245-1.566.404l-1.502.554-1.43.69-1.35.82-1.26.943-1.163 1.057-1.058 1.163-.944 1.26-.82 1.348-.69 1.428c-.21.49-.393.992-.552 1.5a16.21 16.21 0 0 0-.405 1.564c-.1.535-.193 1.076-.25 1.62s-.085 1.104-.085 1.666c0 .556.028 1.113.085 1.666a16.21 16.21 0 0 0 .249 1.619 16.06 16.06 0 0 0 .405 1.564 16.15 16.15 0 0 0 .552 1.501l.69 1.428.82 1.348.944 1.26 1.058 1.163 1.163 1.057 1.26.943 1.35.82 1.43.69 1.502.554L28.74 48a16.27 16.27 0 0 0 1.621.249c.554.056 1.11.085 1.668.085s1.114-.028 1.668-.085c.544-.056 1.085-.14 1.62-.25l1.566-.404 1.502-.554 1.43-.69 1.35-.82 1.26-.943 1.164-1.057 1.058-1.163.944-1.26.82-1.348.69-1.428.552-1.5a16.21 16.21 0 0 0 .405-1.564l.25-1.62c.114-1.108.114-2.225 0-3.333a16.18 16.18 0 0 0-.249-1.619c-.11-.528-.244-1.05-.405-1.564l-.552-1.5-.69-1.428-.82-1.348-.944-1.26-1.058-1.163-1.164-1.057-1.26-.943-1.35-.82-1.43-.69-1.502-.554-1.566-.404-1.62-.25c-.554-.057-1.11-.085-1.668-.085zm0 5.644a10.97 10.97 0 0 1 1.101.055l1.066.16 1.03.262.984.358.938.45.882.534.824.614.76.69.7.76.615.823.535.883.45.937.36.985a10.53 10.53 0 0 1 .262 1.029c.07.35.123.706.16 1.067l.055 1.1a10.96 10.96 0 0 1-.055 1.1 10.79 10.79 0 0 1-.161 1.067l-.262 1.03-.36.985-.45.937-.535.883-.615.824-.7.76-.76.69-.824.615-.882.534-.938.45-.984.358-1.03.262-1.066.16c-.366.037-.733.055-1.1.055a11.04 11.04 0 0 1-1.101-.055l-1.066-.16c-.35-.07-.694-.16-1.03-.262l-.984-.358-.938-.45-.882-.534-.824-.615-.76-.69-.7-.76-.615-.824-.535-.883-.45-.937-.36-.985-.262-1.03-.16-1.067a10.99 10.99 0 0 1-.055-1.1c0-.367.018-.735.055-1.1a10.73 10.73 0 0 1 .161-1.067l.263-1.03.36-.985.45-.937.535-.883.615-.823.7-.76.76-.69.824-.614.882-.534.938-.45a10.69 10.69 0 0 1 .986-.358l1.03-.262c.35-.07.706-.123 1.066-.16a11.04 11.04 0 0 1 1.101-.055z" fill="url(#A)"/><path d="M49.06 10.986a3.86 3.86 0 0 0-.389.02l-.385.06-.377.097a3.9 3.9 0 0 0-.366.134c-.12.05-.237.108-.35.17l-.332.205a3.86 3.86 0 0 0-.31.238l-.285.267c-.1.094-.176.192-.257.295l-.226.32-.194.34a3.93 3.93 0 0 0-.159.358 3.92 3.92 0 0 0-.123.372c-.035.126-.063.254-.085.383s-.038.26-.047.39l-.01.278c0 .13.007.262.02.392l.058.388c.026.128.058.255.096.38l.134.37c.05.12.107.238.17.353a3.91 3.91 0 0 0 .204.334l.236.312c.084.1.172.196.266.287s.19.177.293.26a3.9 3.9 0 0 0 .317.228l.338.195.355.16.37.124a3.83 3.83 0 0 0 .38.086l.387.047.276.01a3.86 3.86 0 0 0 .389-.019l.385-.06c.127-.026.253-.058.377-.097a3.87 3.87 0 0 0 .366-.134l.35-.17.332-.205c.107-.074.21-.153.3-.237a3.89 3.89 0 0 0 .285-.267l.257-.295.227-.32a3.92 3.92 0 0 0 .194-.34l.16-.358a3.95 3.95 0 0 0 .123-.372l.085-.383a3.91 3.91 0 0 0 .047-.389l.01-.278a3.94 3.94 0 0 0-.02-.392c-.013-.13-.032-.26-.058-.388s-.058-.255-.096-.38a3.91 3.91 0 0 0-.134-.368l-.17-.353-.204-.334-.236-.312c-.084-.1-.172-.196-.265-.287s-.19-.178-.293-.26l-.317-.228-.338-.195-.355-.16-.37-.124-.38-.086-.387-.047-.276-.01z" fill="url(#B)"/><path d="M28.924.001c-1.78-.003-3.37.005-4.796.025l-3.826.103-3.034.196-1.275.14L14.85.63l-1.035.2-.947.234-.883.27-.84.308-1.64.737-1.192.65-1.074.726-1.03.857L5.144 5.66 3.93 7.034l-.5.658-.444.663-.398.685-.363.725c-.233.5-.45 1.04-.668 1.643l-.433 1.353-.348 1.482-.272 1.722-.204 2.07-.144 2.527-.092 3.094-.05 3.772L0 31.986l.042 6.63.13 5.023.1 1.962.126 1.626.152 1.31.18 1.02.46 1.77.58 1.653.702 1.536a16.53 16.53 0 0 0 .824 1.422 15.65 15.65 0 0 0 .948 1.309 15.52 15.52 0 0 0 1.073 1.198 15.82 15.82 0 0 0 1.199 1.089l1.327.982 1.27.783 1.3.653 1.36.534 1.478.427 1.646.333 1.863.25 2.13.18 2.444.12 5.74.088 7.616-.015 7.212-.1 2.742-.077 1.786-.092 1.12-.11 1.067-.15 1.022-.19.985-.23.957-.274.938-.32.927-.37.925-.42 1.19-.605c.315-.173.62-.366.91-.58s.57-.45.9-.753l1.16-1.127 1.04-1.075.76-.884c.207-.263.4-.537.578-.82l.497-.883.66-1.353.52-1.26.4-1.29.3-1.443.222-1.718.164-2.115.125-2.634.107-3.276.077-3.65.03-3.816-.07-7.495-.092-3.357-.125-2.882-.156-2.247-.182-1.45-.24-1.098-.284-1.057-.328-1.014-.37-.973-.414-.93-.458-.888-.502-.846-.545-.804-.588-.762-.632-.72-.675-.677-.718-.635-.762-.592-.805-.55-.85-.508-.892-.465-1.418-.65-1.365-.506a14.52 14.52 0 0 0-1.483-.381L48.275.5 46.042.3 43.178.174 39.51.092 34.87.038 28.926.001zm3.087 5.64l8.57.05 3.233.062 1.968.088 1.486.164 1.353.234 1.234.308 1.13.388 1.036.474c.33.17.65.36.958.565s.604.424.892.66l.84.762a11.28 11.28 0 0 1 .797.879 9.61 9.61 0 0 1 .675.939c.208.33.396.674.562 1.028.17.36.322.742.46 1.148l.367 1.296.284 1.475.212 1.684.15 1.922.085 2.127.06 2.915.046 7.14-.052 7.132-.063 2.906-.086 2.114-.2 2.546-.124 1.01-.15.887-.186.8-.227.75-.277.737-.333.762-.33.655-.364.62-.4.583-.436.548-.473.513-.51.478-.55.444-.587.4-.627.376-.666.343-.707.3-.748.278a16.86 16.86 0 0 1-1.622.46l-1.794.336c-.232.034-.764.066-1.527.095l-2.907.08-8.24.107-8.625.014-3.387-.036-2.2-.07-1.622-.114-1.41-.143-1.232-.18-1.086-.226-.972-.278-.89-.34-.842-.408-.826-.485-.604-.41-.562-.432-.52-.46-.48-.488-.442-.52-.405-.554-.368-.59-.334-.63-.3-.672-.268-.716c-.168-.493-.316-1.018-.444-1.578l-.33-1.788-.227-2.02-.105-2.378-.056-3.675.02-9.37.16-8.952.123-3.154.07-1.043.075-.61.257-1.14.274-.997.304-.88.347-.787.403-.723.472-.684.554-.672.65-.687.852-.788c.278-.237.568-.46.87-.666.296-.205.6-.388.915-.555s.644-.32 1-.456l1.093-.37 1.224-.3 1.384-.223 1.572-.17 1.945-.09 3.217-.064 8.558-.052z" fill="url(#C)"/></g></symbol></svg>