<svg xmlns="http://www.w3.org/2000/svg" xmlns:xlink="http://www.w3.org/1999/xlink" viewBox="0 0 81.125 126.167" fill="#fff" fill-rule="evenodd" stroke="#000" stroke-linecap="round" stroke-linejoin="round"><use xlink:href="#A" x="2.083" y="2.083"/><symbol id="A" overflow="visible"><g stroke="none"><g fill="#d0cfce" fill-rule="nonzero"><path d="M38.96 121.056l-28.9-56.02C5.625 56.43.02 48.977.02 38.94.02 17.44 17.452.008 38.954.008v16.725s-21.787 1.083-21.787 21.66S38.96 60.802 38.96 60.802v60.254z"/><path d="M38.905 121.05l28.9-56.025c4.298-8.25 10.035-16.054 10.035-26.092C77.84 17.433 60.41 0 38.907 0l-.592 16.733s23.285.552 22.935 22.365-22.937 21.704-22.937 21.704l.6 60.25z"/></g><path d="M40.683 1.32S60.996 9.73 65.35 33.17c4.246 22.875-19.1 62.846-25.35 82.986s37.896-72.223 37.896-72.223.97-43.167-37.214-42.6z" fill="#9b9b9a" fill-rule="nonzero"/></g><g fill="none" stroke-width="4.167"><path d="M16.925 38.766A21.99 21.99 0 0 1 38.96 16.731a21.99 21.99 0 0 1 22.035 22.035A21.99 21.99 0 0 1 38.96 60.802a21.99 21.99 0 0 1-22.035-22.035z"/><path d="M38.958 121.056l-28.9-56.042C5.625 56.43 0 48.977 0 38.942 0 17.442 17.43.008 38.933.008m.008 121.042l28.9-56.025c4.298-8.25 10.035-16.054 10.035-26.092C77.877 17.433 60.446 0 38.944 0" stroke-miterlimit="10"/></g></symbol></svg>